<svg width="494" height="453" viewBox="0 0 494 453" fill="none" xmlns="http://www.w3.org/2000/svg">
<path fill-rule="evenodd" clip-rule="evenodd" d="M209.276 240.259C209.915 251.458 221.112 246.339 226.231 242.819C231.03 239.299 232.629 242.179 232.949 235.459C233.269 230.98 233.589 226.82 233.589 222.34C226.231 221.7 218.233 223.3 212.155 227.78C209.276 230.02 203.197 237.379 209.276 240.259Z" fill="#F6D2A2"/>
<path d="M215.354 248.259C213.115 248.259 208.956 247.299 208.316 240.899C206.396 239.619 205.756 238.019 205.756 237.059C205.437 233.22 209.595 228.74 211.835 227.14C216.953 223.3 223.672 221.38 230.71 221.38H234.869V222.34C235.189 225.86 234.869 229.38 234.549 232.58C234.549 233.54 234.549 234.5 234.229 235.459C233.909 240.259 232.949 240.899 230.71 241.859C229.75 242.179 228.79 242.499 227.191 243.779C225.591 244.739 220.153 248.259 215.354 248.259ZM230.71 223.3C223.992 223.3 217.913 225.22 213.115 228.74C210.875 230.34 207.676 234.18 207.996 236.739C207.996 237.699 208.636 238.659 209.915 239.299L210.555 239.619V240.259C210.875 245.379 213.434 246.019 215.354 246.019C218.553 246.019 223.032 243.779 225.911 241.859C227.831 240.579 229.11 240.259 230.07 239.939C231.67 239.299 231.99 239.299 232.309 235.459C232.309 234.5 232.309 233.54 232.629 232.58C232.949 229.7 232.949 226.5 232.949 223.62C231.99 223.3 231.35 223.3 230.71 223.3Z" fill="black"/>
<path fill-rule="evenodd" clip-rule="evenodd" d="M209.275 240.259C210.875 239.619 212.794 239.299 213.754 237.699Z" fill="#C6B198"/>
<path d="M209.275 241.219C208.956 241.219 208.316 240.899 208.316 240.579C207.996 239.939 208.316 239.299 208.956 239.299C209.275 239.299 209.595 238.979 209.595 238.979C210.875 238.339 212.155 238.019 212.795 237.059C213.114 236.739 213.754 236.419 214.394 236.739C214.714 237.059 215.034 237.699 214.714 238.339C213.434 239.939 211.835 240.579 210.555 240.899L209.915 241.219H209.275Z" fill="black"/>
<path fill-rule="evenodd" clip-rule="evenodd" d="M235.509 104.908C192 92.7487 224.312 37.3923 259.182 60.1108L235.509 104.908Z" fill="#6AD7E5"/>
<path d="M236.148 106.188L235.189 105.868C212.795 99.4682 213.114 83.4693 213.754 78.6696C215.354 66.5104 226.871 53.7112 242.227 53.7112C248.305 53.7112 254.064 55.6311 259.822 59.4708L260.782 60.1108L236.148 106.188ZM242.227 55.951C227.831 55.951 217.273 67.7903 215.674 78.9895C214.074 90.5088 221.112 99.4682 234.869 103.628L257.583 60.4307C252.784 57.5509 247.665 55.951 242.227 55.951Z" fill="black"/>
<path fill-rule="evenodd" clip-rule="evenodd" d="M428.417 55.951C462.648 31.9526 494 86.3491 454.011 100.108L428.417 55.951Z" fill="#6AD7E5"/>
<path d="M453.691 101.388L427.138 55.6311L428.097 54.9911C434.176 50.8314 440.254 48.5916 446.333 48.5916C461.049 48.5916 471.606 60.7508 473.845 72.59C474.805 77.3897 475.765 93.7086 454.65 100.748L453.691 101.388ZM430.017 56.591L454.65 99.1483C467.127 94.6686 473.525 85.0692 471.606 73.5499C469.686 62.6706 459.769 51.4714 446.333 51.4714C440.894 51.1514 435.455 52.7513 430.017 56.591Z" fill="black"/>
<path fill-rule="evenodd" clip-rule="evenodd" d="M436.095 379.77C444.733 385.21 460.729 401.529 447.612 409.528C435.136 421.047 428.097 396.729 416.9 393.529C421.699 387.13 427.778 381.05 436.095 379.77Z" fill="#F6D2A2"/>
<path d="M440.894 413.688C435.775 413.688 431.297 408.568 427.458 403.768C423.939 399.929 420.42 395.769 416.581 394.489L414.981 394.169L415.941 392.889C419.78 387.45 426.178 380.41 435.775 378.81H436.095L436.415 379.13C441.854 382.65 453.691 392.569 453.371 401.849C453.371 405.368 451.451 408.248 447.932 410.488C445.693 412.728 443.453 413.688 440.894 413.688ZM418.5 392.889C422.339 394.489 425.538 398.649 428.737 402.169C432.576 406.968 436.415 411.128 440.574 411.128C442.494 411.128 444.413 410.168 446.333 408.248H446.653C449.532 406.328 451.131 404.088 451.131 401.209C451.131 393.849 441.854 384.57 435.456 380.41C429.697 382.01 423.939 385.85 418.5 392.889ZM447.612 410.488C447.292 410.488 446.972 410.168 446.653 409.848C446.013 408.568 445.373 406.968 445.053 405.688C444.093 403.128 443.133 400.569 441.214 398.649C440.894 398.329 440.894 397.689 441.214 397.049C441.534 396.729 442.174 396.729 442.814 397.049C445.053 399.289 446.333 402.169 447.292 405.048L448.892 408.888C449.212 409.528 448.892 410.168 448.572 410.488H447.612Z" fill="black"/>
<path fill-rule="evenodd" clip-rule="evenodd" d="M279.977 398.329C269.739 399.929 263.981 409.208 255.343 414.008C247.345 418.808 244.146 412.408 243.506 411.128C242.227 410.488 242.227 411.768 240.307 409.848C232.949 398.009 247.985 389.369 255.983 383.61C267.18 381.05 274.218 390.649 279.977 398.329Z" fill="#F6D2A2"/>
<path d="M249.905 416.568C245.746 416.568 243.506 413.048 242.867 411.768H242.547C241.587 411.768 240.947 411.448 239.667 410.168V409.848C232.629 398.649 244.786 390.009 252.784 384.25L255.663 382.33H256.303C257.583 382.01 258.542 382.01 259.822 382.01C269.42 382.01 275.498 390.329 280.617 397.049L282.216 399.289L280.297 399.609C274.218 400.569 269.739 404.408 265.261 408.248C262.381 410.808 259.502 413.048 256.303 414.968C253.744 415.928 251.824 416.568 249.905 416.568ZM242.867 409.848C243.187 409.848 243.506 409.848 244.146 410.168H244.466L244.786 410.488C245.426 411.448 247.026 414.328 250.225 414.328C251.824 414.328 253.424 413.688 255.023 412.728C258.223 411.128 261.102 408.568 263.661 406.328C267.82 402.809 272.299 398.969 278.057 397.369C273.259 390.969 267.5 383.93 259.502 383.93C258.542 383.93 257.583 383.93 256.623 384.25L254.064 386.17C245.746 391.929 235.509 399.289 241.587 408.888C241.907 409.528 242.227 409.848 242.867 409.848ZM243.506 412.088C242.867 412.088 242.227 411.448 242.547 410.808C242.867 407.608 244.466 405.368 246.066 402.809C247.026 401.529 247.665 400.249 248.305 398.969C248.625 398.329 249.265 398.329 249.585 398.329C250.225 398.649 250.225 399.289 250.225 399.609C249.585 401.209 248.625 402.489 247.665 403.768C246.066 406.008 244.786 407.928 244.466 410.488C244.466 411.768 244.146 412.088 243.506 412.088Z" fill="black"/>
<path fill-rule="evenodd" clip-rule="evenodd" d="M237.428 89.8689C231.67 86.989 227.511 82.8293 231.03 76.1098C234.229 70.0301 240.307 70.6701 246.066 73.5499L237.428 89.8689ZM445.053 84.1092C450.811 81.2294 454.97 77.0697 451.451 70.3501C448.252 64.2705 442.174 64.9105 436.415 67.7903L445.053 84.1092Z" fill="black"/>
<path fill-rule="evenodd" clip-rule="evenodd" d="M484.402 238.659C483.763 249.859 472.566 244.739 467.447 241.219C462.648 237.699 461.049 240.579 460.729 233.86C460.409 229.38 460.089 225.22 460.089 220.74C467.447 220.1 475.445 221.7 481.523 226.18C484.722 228.74 490.481 235.779 484.402 238.659Z" fill="#F6D2A2"/>
<path d="M478.644 246.659C473.845 246.659 468.407 243.139 466.807 242.179C465.207 241.219 464.248 240.579 463.288 240.259C460.729 239.299 460.089 238.659 459.769 233.859C459.769 232.9 459.769 231.94 459.449 230.98C459.129 227.78 458.809 224.26 459.129 220.74V219.78H463.288C470.326 219.78 477.044 221.7 482.163 225.54C484.402 227.14 488.561 231.62 488.241 235.459C488.241 236.739 487.602 238.339 485.682 239.299C485.042 245.699 480.883 246.659 478.644 246.659ZM461.049 222.02C461.049 224.9 461.049 228.1 461.369 230.98C461.369 231.94 461.369 232.9 461.688 233.859C462.008 237.699 462.328 237.699 463.928 238.339C464.888 238.659 466.167 239.299 468.087 240.259C470.966 242.179 475.445 244.419 478.644 244.419C480.563 244.419 483.123 243.779 483.443 238.659V238.019L484.082 237.699C485.362 237.059 486.002 236.419 486.002 235.139C486.322 232.58 483.123 228.74 480.883 227.14C476.085 223.62 469.686 221.7 463.288 221.7C462.648 222.02 462.008 222.02 461.049 222.02Z" fill="black"/>
<path fill-rule="evenodd" clip-rule="evenodd" d="M484.403 238.659C482.803 238.019 480.884 237.699 479.924 236.099Z" fill="#C6B198"/>
<path d="M484.403 239.939H484.083L483.443 239.619C481.843 238.979 480.244 238.659 479.284 237.059C478.964 236.739 478.964 235.779 479.604 235.459C479.924 235.139 480.883 235.139 481.203 235.779C481.843 236.739 483.123 237.059 484.403 237.699C484.722 237.699 485.042 238.019 485.042 238.019C485.682 238.339 486.002 238.979 485.682 239.299C485.362 239.619 484.722 239.939 484.403 239.939Z" fill="black"/>
<path fill-rule="evenodd" clip-rule="evenodd" d="M342.68 33.2325C386.189 33.2325 426.818 39.3121 448.252 81.2294C467.447 127.946 460.409 178.503 463.608 228.1C466.167 270.657 471.606 319.614 452.091 358.971C431.297 400.249 379.47 410.808 336.922 409.208C303.331 407.928 263.021 397.049 243.826 366.331C221.752 330.493 231.989 277.057 233.589 237.059C235.508 189.702 220.792 142.025 236.468 95.9485C252.144 47.6316 295.653 36.7523 342.68 33.2325Z" fill="#6AD7E5"/>
<path d="M344.28 410.488H336.282C323.165 410.168 303.33 407.928 283.816 399.929C264.941 392.249 251.184 381.37 242.227 366.971C224.311 337.853 227.511 297.855 230.39 262.338C231.03 253.378 231.669 245.059 231.989 237.059C232.629 220.42 231.35 203.141 229.75 186.823C227.191 156.744 224.631 125.706 234.549 95.6284C242.227 73.2299 255.983 57.2309 276.777 46.9916C293.093 38.9921 313.248 34.5124 342.04 32.2726C384.909 31.9526 427.458 38.0322 448.892 80.5894C462.968 114.827 462.968 151.625 463.288 187.142C463.288 200.582 463.288 214.341 464.248 227.78C464.568 231.94 464.888 236.099 464.888 240.259C467.447 279.296 470.326 323.454 452.411 359.291C443.453 377.53 427.777 390.969 406.343 399.609C389.068 406.648 367.313 410.488 344.28 410.488ZM342.68 34.1924C297.572 37.7122 253.424 47.6316 237.108 96.2684C227.191 126.026 229.75 156.744 232.309 186.503C233.589 203.141 235.188 220.1 234.549 237.059C234.229 245.059 233.589 253.378 232.949 262.338C230.07 297.535 226.871 337.213 244.466 365.691C251.824 377.53 275.498 405.688 336.602 407.928H344.6C415.301 407.928 441.534 376.57 451.131 358.011C468.727 322.814 465.847 278.657 463.608 239.939C463.288 235.779 462.968 231.62 462.968 227.46C462.328 214.021 462.008 200.262 462.008 186.823C461.688 151.625 461.688 114.827 447.932 80.9094C438.335 62.0306 423.938 49.2314 404.104 41.8719C383.629 35.1524 360.595 34.1924 342.68 34.1924Z" fill="black"/>
<path fill-rule="evenodd" clip-rule="evenodd" d="M350.358 91.4687C358.036 136.906 432.256 124.747 421.699 78.9896C412.102 38.0322 347.799 49.5515 350.358 91.4687Z" fill="white"/>
<path d="M385.549 121.227C371.153 121.227 352.917 113.547 349.078 91.7888C348.439 81.5495 351.638 72.2701 358.356 65.2305C365.714 57.2311 376.911 52.7513 388.428 52.7513C401.864 52.7513 417.86 59.7909 422.339 79.3096C424.898 90.1889 422.979 99.7883 416.9 107.468C410.182 115.787 398.345 121.227 385.549 121.227ZM351.318 91.4688C352.917 100.428 357.076 107.468 363.795 112.587C369.553 117.067 377.551 119.307 385.549 119.307C397.386 119.307 408.903 114.187 415.301 106.188C421.059 99.1483 422.659 89.8689 420.42 79.6296C416.261 61.3908 401.225 54.9912 388.428 54.9912C377.551 54.9912 366.994 59.4709 359.956 66.8304C353.877 73.23 350.678 81.8695 351.318 91.4688Z" fill="black"/>
<path fill-rule="evenodd" clip-rule="evenodd" d="M261.742 98.8283C271.979 138.186 335.002 128.266 332.763 88.5889C329.884 41.232 251.824 50.1914 261.742 98.8283Z" fill="white"/>
<path d="M295.333 125.067C281.576 125.067 265.58 118.347 260.462 99.1482C258.222 87.9489 260.462 77.7096 266.86 70.0301C273.898 61.3907 285.415 56.271 297.892 56.271C314.527 56.271 332.123 66.1903 333.402 88.5889C334.042 97.8683 331.163 106.188 324.765 112.907C318.047 120.267 306.85 125.067 295.333 125.067ZM297.892 58.5108C286.055 58.5108 275.178 63.3105 268.46 71.31C262.381 78.6695 260.462 87.9489 262.701 98.5083C267.18 116.427 282.536 122.827 295.333 122.827C306.21 122.827 316.767 118.667 323.485 111.307C329.244 105.228 332.123 97.2283 331.483 88.5889C330.843 74.8298 321.566 58.5108 297.892 58.5108Z" fill="black"/>
<path fill-rule="evenodd" clip-rule="evenodd" d="M359.316 145.865C359.316 151.625 360.595 158.344 359.636 164.744C358.036 167.624 355.157 167.944 352.597 168.904C349.078 168.264 346.199 166.024 344.6 162.824C343.64 155.785 344.919 148.745 345.239 141.706L359.316 145.865Z" fill="white"/>
<path d="M352.598 170.184C348.439 169.544 345.239 166.984 343.64 163.464C343 158.344 343.32 153.545 343.64 148.745C343.96 146.505 343.96 144.265 343.96 142.026V140.746L360.276 145.865V146.505C360.276 148.425 360.595 150.345 360.595 152.585C360.915 156.745 361.235 161.224 360.595 165.384V165.704C359.316 168.264 357.076 168.904 354.837 169.864C354.197 169.544 353.557 169.864 352.598 170.184ZM345.559 162.504C346.839 165.384 349.398 167.304 352.278 167.944C352.917 167.624 353.557 167.624 353.877 167.304C355.797 166.664 357.396 166.024 358.356 164.424C358.996 160.584 358.676 156.425 358.356 152.265C358.356 150.345 358.036 148.425 358.036 146.825L345.879 142.985C345.879 144.905 345.559 146.825 345.559 148.425C345.239 153.545 344.92 158.024 345.559 162.504Z" fill="black"/>
<path fill-rule="evenodd" clip-rule="evenodd" d="M289.894 92.4287C289.894 98.8283 285.095 103.948 279.337 103.948C273.578 103.948 268.78 98.8283 268.78 92.4287C268.78 86.0291 273.578 80.9094 279.337 80.9094C285.095 80.9094 289.894 86.0291 289.894 92.4287Z" fill="black"/>
<path fill-rule="evenodd" clip-rule="evenodd" d="M286.375 94.9886C286.375 96.5885 285.095 97.8684 283.816 97.8684C282.536 97.8684 281.256 96.5885 281.256 94.9886C281.256 93.3887 282.536 92.1088 283.816 92.1088C285.415 92.1088 286.375 93.3887 286.375 94.9886Z" fill="white"/>
<path fill-rule="evenodd" clip-rule="evenodd" d="M379.15 89.5489C379.15 95.9485 374.352 101.068 368.593 101.068C362.835 101.068 358.036 95.9485 358.036 89.5489C358.036 83.1493 362.835 78.0297 368.593 78.0297C374.352 78.0297 379.15 83.1493 379.15 89.5489Z" fill="black"/>
<path fill-rule="evenodd" clip-rule="evenodd" d="M375.951 92.1087C375.951 93.7086 374.992 94.9885 373.392 94.9885C372.112 94.9885 370.833 93.7086 370.833 92.1087C370.833 90.5088 371.792 89.2289 373.392 89.2289C374.672 89.2289 375.951 90.5088 375.951 92.1087ZM328.604 145.225C323.805 156.425 331.163 179.143 343.96 162.504C343 155.465 344.28 148.425 344.6 141.385L328.604 145.225Z" fill="white"/>
<path d="M335.322 169.544C333.083 169.544 330.843 168.264 329.244 165.704C325.725 160.584 325.085 150.985 327.644 144.905L327.964 144.265L345.559 139.786V141.066L345.239 148.105C344.92 152.905 344.6 157.385 345.239 162.184V162.504L344.92 162.824C341.72 167.304 338.521 169.544 335.322 169.544ZM329.564 146.185C327.644 151.625 328.284 160.264 331.163 164.424C332.443 166.344 333.723 167.304 335.322 167.304C337.561 167.304 340.121 165.384 342.68 162.184C342.04 157.385 342.36 152.585 343 148.105L343.32 142.665L329.564 146.185Z" fill="black"/>
<path fill-rule="evenodd" clip-rule="evenodd" d="M330.203 123.467C321.566 124.107 314.527 134.666 319.006 142.665C325.085 153.545 338.201 141.706 346.519 142.665C356.116 142.985 363.794 152.905 371.472 144.585C380.11 135.306 367.633 126.346 358.356 122.187L330.203 123.467Z" fill="#F6D2A2"/>
<path d="M364.754 149.065C361.875 149.065 358.996 147.785 356.117 146.505C353.237 145.225 350.038 143.945 346.519 143.945H345.559C343 143.945 340.121 144.905 336.922 146.185C333.403 147.465 329.884 148.425 326.684 148.425C322.845 148.425 319.966 146.825 318.047 143.305C315.807 139.466 316.127 134.986 318.367 130.826C320.926 126.026 325.405 123.147 330.203 122.507L358.676 121.227H358.996C366.034 124.107 374.032 129.546 375.631 135.946C376.271 139.146 375.312 142.345 372.752 145.225C370.193 148.105 367.634 149.065 364.754 149.065ZM346.839 142.025C350.358 142.025 353.877 143.625 357.076 144.905C359.956 146.185 362.515 147.145 365.074 147.145C367.314 147.145 369.233 146.185 371.153 144.265C373.392 142.025 374.032 139.466 373.712 136.906C372.432 131.466 364.754 126.346 358.676 123.787L330.843 125.067C326.684 125.387 322.845 128.266 320.606 132.106C318.687 135.626 318.687 139.466 320.286 142.665C321.886 145.545 323.805 146.825 327.004 146.825C329.884 146.825 333.083 145.545 336.282 144.585C339.801 143.305 342.68 142.345 345.879 142.345C345.879 141.705 346.199 141.705 346.839 142.025Z" fill="#231F20"/>
<path fill-rule="evenodd" clip-rule="evenodd" d="M329.244 123.147C328.604 108.108 357.396 106.188 360.595 118.667C364.114 131.466 330.523 134.346 329.244 123.147Z" fill="black"/>
<path d="M186.269 397.278C192.887 397.2 199.476 396.403 205.921 394.9C223.195 391.03 241.102 383.825 259.164 373.464L261.152 372.328L263.278 371.078C274.437 364.333 285.138 356.857 295.311 348.7L296.788 347.508L300.609 344.408L302.906 342.526C303.311 342.193 303.717 341.82 304.155 341.438L304.358 341.26L304.731 340.911L305.429 340.238L305.802 339.872L306.297 339.361L307.165 338.436L307.238 338.347C307.506 338.055 307.766 337.747 308.05 337.438L308.585 336.814L309.299 335.88C309.51 335.613 309.721 335.337 309.924 335.069L310.021 334.947L310.533 334.25C310.768 333.933 311.003 333.592 311.23 333.26L312.983 330.72L312.934 330.647C313.591 329.576 314.224 328.481 314.817 327.402L314.906 327.231C322.208 313.494 324.302 298.111 319.977 290.63L319.32 289.494C313.997 280.252 302.906 261.022 295.887 251.31C295.5 250.785 295.068 250.293 294.597 249.841L294.41 249.671L294.191 249.468C293.907 249.217 293.623 248.981 293.331 248.762L293.258 248.714C291.84 247.69 290.252 246.924 288.568 246.45C288.114 246.312 287.692 246.206 287.262 246.117L287.027 246.068C286.621 245.987 286.215 245.906 285.802 245.849L285.363 245.793C285.031 245.752 284.69 245.703 284.341 245.679C283.676 245.622 283.002 245.598 282.321 245.598C280.604 245.582 278.891 245.767 277.217 246.15H277.063L215.552 138.073C219.779 131.209 220.656 125.432 218.148 120.88L212.883 111.338C214.057 109.223 214.76 106.879 214.944 104.466C215.041 103.225 215.146 102.21 215.236 101.366V101.204C215.795 95.8491 215.463 94.5671 211.99 88.7251C210.229 85.7555 208.534 82.8345 206.903 80.019C205.272 77.2035 203.381 73.9417 201.629 71.0289C201.377 70.6232 201.126 70.2175 200.817 69.8361C200.632 69.551 200.426 69.2798 200.201 69.0247C200.087 68.8868 199.957 68.7408 199.811 68.5947C198.423 67.0425 196.755 65.7653 194.894 64.8299C192.179 63.4818 189.222 62.6875 186.196 62.4931C185.385 62.4282 184.573 62.3958 183.762 62.3958C181.668 62.407 179.578 62.5943 177.514 62.9556C168.386 64.5784 143.501 72.8707 126.762 81.7635C110.64 90.3317 85.8119 104.912 81.6333 107.882C73.6899 113.489 78.1363 122.406 80.4081 125.984C82.1201 128.686 85.033 133.716 86.7613 136.727C79.7105 141.492 72.9026 146.608 66.3631 152.054L57.7706 137.221C57.7376 137.128 57.6997 137.035 57.6569 136.946C57.2515 136.06 56.6425 135.284 55.8796 134.679C55.1168 134.074 54.2217 133.658 53.2674 133.465C52.9543 133.398 52.6372 133.352 52.3181 133.327C52.1071 133.327 51.9043 133.327 51.6933 133.327C49.0401 133.327 46.0542 134.617 43.0845 137.067C42.8898 137.23 42.622 137.465 42.2731 137.781C41.9242 138.098 16.7633 161.466 24.0414 172.038C24.1955 172.257 24.3497 172.484 24.512 172.736L25.1854 173.782C28.7636 179.421 34.8003 190.4 37.0722 194.529L37.843 195.917C39.7335 199.333 44.7235 201.215 48.107 202.14L54.0869 212.98C56.2776 216.94 60.6185 219.204 66.9878 219.707C67.8966 219.78 68.8703 219.82 69.8845 219.82H70.8257L135.55 331.41C130.13 338.874 133.116 347.694 133.262 348.076L133.391 348.457L133.619 348.863C133.74 349.082 146.869 372.174 150.804 379.281C156.654 389.829 167.226 395.971 181.393 397.091C182.959 397.213 184.598 397.278 186.269 397.278Z" fill="#390176"/>
<path d="M25.9805 170.707C20.6335 162.942 39.3359 143.623 43.8715 139.445C44.1717 139.169 44.4151 138.958 44.5774 138.82C47.2955 136.58 49.9893 135.444 52.1638 135.574C52.3819 135.594 52.5986 135.627 52.8129 135.672C53.4805 135.8 54.1024 136.102 54.6154 136.548C55.1283 136.994 55.5142 137.568 55.7339 138.211L65.8113 155.583C73.4617 149.061 81.4952 143.003 89.8688 137.441L89.8039 137.319C88.2704 134.633 84.4812 128.012 82.4041 124.742C77.1301 116.458 79.8239 112.012 83.0207 109.756C87.1588 106.819 111.825 92.3357 127.898 83.7919C144.459 75.0046 168.995 66.7528 177.961 65.2193C180.637 64.7376 183.363 64.5931 186.074 64.7893C188.803 64.9563 191.471 65.6681 193.921 66.8826C195.538 67.6848 196.989 68.786 198.197 70.1282C198.302 70.2337 198.399 70.3391 198.497 70.4527C198.671 70.6514 198.833 70.86 198.984 71.0775C199.251 71.4507 199.487 71.7915 199.698 72.1323C201.385 74.9397 203.122 77.9337 204.955 81.0981C206.578 83.9217 208.29 86.8508 210.051 89.8286C213.296 95.2405 213.475 96.0681 212.98 100.888C212.883 101.78 212.761 102.867 212.655 104.222C212.462 106.722 211.623 109.129 210.221 111.208L216.104 121.911C218.327 125.968 217.215 131.306 212.858 137.919L275.959 248.835L276.373 248.689L276.771 248.551L277.761 248.267C279.852 247.816 281.999 247.68 284.13 247.862C284.503 247.862 284.852 247.943 285.201 247.991H285.445C285.818 248.051 286.183 248.116 286.54 248.186L286.751 248.235C287.132 248.316 287.497 248.405 287.854 248.511H287.895C289.329 248.911 290.68 249.562 291.887 250.434H291.936C292.195 250.628 292.439 250.831 292.674 251.042H292.731L292.885 251.188C293.311 251.582 293.697 252.017 294.037 252.486C300.991 262.093 312.034 281.258 317.348 290.467L318.005 291.603C321.941 298.427 319.571 313.356 312.91 325.941L312.804 326.144C311.993 327.637 311.141 329.097 310.224 330.509L309.34 331.783C309.121 332.107 308.893 332.432 308.666 332.748L308.09 333.56L307.49 334.371L306.76 335.28C306.597 335.483 306.427 335.678 306.256 335.88L305.502 336.74L305.437 336.813L304.958 337.325L304.707 337.592C304.52 337.795 304.334 337.99 304.139 338.185L303.79 338.526L303.133 339.158L302.784 339.491L302.597 339.661C302.2 340.018 301.786 340.367 301.388 340.7L301.299 340.765L301.185 340.984L299.165 342.607L299.092 342.672L298.897 342.834C298.686 342.996 298.492 343.159 298.281 343.337C298.07 343.516 297.94 343.613 297.769 343.751L296.999 344.376L295.376 345.714L295.205 345.852L294.938 346.063C284.535 354.46 273.581 362.15 262.15 369.082L260.024 370.324C244.389 379.476 225.727 388.109 205.442 392.653C196.606 394.625 188.582 395.347 181.596 394.795C168.24 393.74 158.293 387.996 152.84 378.17C148.937 371.111 135.801 347.954 135.639 347.727L135.525 347.532L135.46 347.345C135.347 347.004 132.629 338.988 137.732 332.4L137.813 332.286L138.325 331.58L72.1969 217.459C70.5461 217.566 68.8901 217.566 67.2393 217.459C61.6895 217.021 57.9652 215.155 56.1721 211.909L49.681 200.201C44.8127 199.024 41.129 197.069 39.8957 194.846L39.133 193.458C36.6989 189.093 30.7758 178.277 27.1732 172.59L27.0191 172.346L26.4754 171.535L25.9805 170.707Z" fill="#390176"/>
<path d="M181.571 394.795C188.557 395.347 196.582 394.624 205.418 392.653C250.547 382.559 287.343 352.343 301.185 340.984L301.396 340.814C316.123 328.716 323.75 301.664 318.022 291.741L317.364 290.605C312.05 281.396 301.007 262.207 294.053 252.624C292.057 249.866 288.625 248.219 284.13 247.862C281.999 247.68 279.852 247.816 277.761 248.267C277.291 248.383 276.828 248.524 276.373 248.689L273.533 249.712L275.156 252.3C275.27 252.486 278.053 256.973 280.601 260.414C282.661 263.18 280.365 266.41 275.026 272.584L273.404 274.467L272.219 275.862C267.278 281.615 267.205 282.865 271.408 289.258L271.627 289.583C274.767 294.313 279.578 303.198 281.501 306.8L281.947 307.612C272.568 317.551 257.687 327.823 249.435 333.187C247.001 334.761 245.021 336.026 243.626 336.886C241.265 332.724 236.177 323.766 234.457 320.618C232.023 316.18 228.274 313.316 224.42 313.04C222.426 312.9 220.438 313.394 218.741 314.452L199.081 326.184C198.894 326.29 198.643 326.428 198.391 326.582C180.354 337.341 159.623 343.256 150.779 342.55C148.913 342.404 148.085 341.982 147.915 341.739C145.55 338.974 143.536 335.927 141.919 332.667L140.174 328.838L137.74 332.205L137.659 332.318C132.556 338.907 135.274 346.923 135.387 347.264L135.46 347.475L135.574 347.67C135.704 347.897 148.873 371.054 152.775 378.113C158.268 387.995 168.216 393.724 181.571 394.795Z" fill="#390176"/>
<path d="M137.724 346.501C137.724 346.501 150.982 369.821 154.942 376.969C158.901 384.117 170.358 397.976 204.89 390.259C249.687 380.247 285.858 350.404 299.822 338.907C313.786 327.41 320.837 301.583 315.879 292.975C310.922 284.366 299.27 263.984 292.098 254.069C288.698 249.379 280.544 250.093 278.361 250.645C277.623 250.839 277.185 250.994 277.185 250.994C277.185 250.994 280 255.537 282.515 258.905C286.353 264.057 280.746 269.582 275.221 276.073C269.695 282.564 269.46 281.915 273.655 288.244C276.754 292.91 281.436 301.518 283.651 305.665C284.463 307.133 284.917 308.05 284.917 308.05C275.643 318.379 260.154 329.187 250.766 335.296C245.971 338.428 242.766 340.327 242.766 340.327C242.766 340.327 234.652 326.055 232.339 321.852C230.027 317.649 225.248 313.462 219.974 316.61L200.306 328.343L199.641 328.732C177.733 341.812 150.341 348.473 146.089 343.41C143.566 340.468 141.426 337.218 139.72 333.738C139.72 333.779 139.655 333.82 139.631 333.868C135.266 339.475 137.724 346.501 137.724 346.501Z" fill="#3F8680"/>
<path opacity="0.33" d="M137.968 346.931L147.023 344.108C150.804 346.242 161.425 344.757 173.798 340.578L192.46 341.795C178.488 348.863 166.399 355.053 172.005 368.32C177.612 381.586 193.32 384.547 211.544 382.17C229.768 379.793 258.604 372.133 254.791 361.674C252.575 355.589 257.533 360.863 262.093 366.291C246.028 376.028 226.465 385.472 204.882 390.3C170.382 398.016 158.893 384.158 154.934 377.009C151.291 370.389 139.72 350.096 137.968 346.931Z" fill="#231F1F"/>
<path opacity="0.33" d="M269.29 322.152C274.904 317.897 280.146 313.171 284.958 308.026C284.958 308.026 284.479 307.109 283.692 305.64C281.477 301.494 276.795 292.885 273.696 288.22C269.501 281.899 269.76 282.54 275.262 276.049C277.972 272.803 280.706 269.882 282.321 267.124L292.633 268.106C289.071 275.457 281.996 279.067 286.71 286.402C291.424 293.737 293.201 298.151 300.268 301.989C307.336 305.827 307.92 309.665 310.111 313.032C312.001 315.912 316.042 307.677 317.186 305.21C315.758 316.399 309.453 331.02 299.847 338.907C296.487 341.666 291.846 345.487 286.118 349.828L269.29 322.152Z" fill="#231F1F"/>
<path d="M152.313 345.512C163.023 345.512 183.616 338.745 199.876 329.057L200.533 328.667L220.201 316.935C220.966 316.44 221.827 316.113 222.727 315.973C223.628 315.833 224.547 315.884 225.426 316.123C227.861 316.789 230.352 319.004 232.007 322.022C234.279 326.176 242.36 340.359 242.441 340.505L242.644 340.862L243.001 340.651C243.001 340.651 246.247 338.712 251.009 335.613C259.724 329.933 275.757 318.858 285.242 308.293L285.428 308.082L285.298 307.831C285.298 307.831 284.82 306.914 284.033 305.445C282.085 301.81 277.225 292.82 274.012 287.993L273.801 287.668C270.353 282.427 270.353 282.427 274.353 277.696C274.726 277.266 275.124 276.796 275.554 276.284L277.176 274.426C282.199 268.584 286.532 263.546 282.856 258.629C280.422 255.318 277.574 250.799 277.55 250.75L210.31 132.629L209.953 132.832L69.1298 213.021L69.3326 213.378L139.598 334.615L139.655 334.534C141.351 337.79 143.403 340.849 145.773 343.653C146.852 344.927 149.156 345.512 152.313 345.512ZM223.714 315.077C222.316 315.097 220.95 315.498 219.763 316.237L200.128 328.002C199.917 328.116 199.681 328.253 199.454 328.391C177.433 341.528 150.455 347.954 146.39 343.159C143.903 340.249 141.788 337.041 140.093 333.609L139.801 332.959L139.663 333.154L70.2495 213.362L209.978 133.733L276.844 251.196C276.844 251.253 279.7 255.805 282.199 259.148C285.444 263.538 281.331 268.357 276.519 273.923L274.896 275.798L273.696 277.201C269.347 282.272 269.33 282.475 273.079 288.114L273.298 288.447C276.487 293.242 281.339 302.2 283.27 305.827C283.822 306.841 284.219 307.596 284.406 307.961C274.961 318.395 259.148 329.324 250.523 334.931C246.701 337.43 243.861 339.158 242.896 339.743C241.622 337.495 234.782 325.414 232.68 321.633C230.92 318.387 228.274 316.066 225.597 315.336C224.991 315.17 224.367 315.083 223.739 315.077H223.714Z" fill="#390176"/>
<path d="M69.6896 213.175L139.631 333.868C139.631 333.819 139.696 333.779 139.72 333.738C141.423 337.221 143.561 340.473 146.081 343.418C150.365 348.481 177.725 341.795 199.633 328.74L200.298 328.351L219.966 316.618C225.24 313.47 230.035 317.665 232.331 321.86C234.627 326.055 242.766 340.302 242.766 340.302C242.766 340.302 246.011 338.404 250.766 335.272C260.154 329.162 275.643 318.355 284.917 308.026C284.917 308.026 284.438 307.109 283.651 305.64C281.436 301.494 276.754 292.885 273.655 288.22C269.46 281.899 269.72 282.54 275.221 276.049C280.722 269.558 286.329 264.049 282.523 258.896C280.008 255.529 277.193 250.985 277.193 250.985L210.14 133.173L69.6896 213.175Z" fill="#390176"/>
<path d="M150.795 342.607C159.64 343.313 180.37 337.398 198.432 326.631C198.659 326.485 198.91 326.347 199.146 326.209L218.757 314.509C220.454 313.451 222.442 312.957 224.437 313.097C228.291 313.397 232.039 316.237 234.473 320.675C236.194 323.823 241.281 332.781 243.642 336.943C245.038 336.083 247.05 334.817 249.452 333.252C257.703 327.88 272.584 317.608 281.964 307.669L281.517 306.857C279.594 303.247 274.783 294.362 271.643 289.632L271.424 289.307C267.18 282.913 267.253 281.664 272.235 275.911L273.404 274.451C273.939 273.81 274.475 273.185 275.026 272.568C280.365 266.361 282.661 263.132 280.6 260.397C278.053 256.99 275.27 252.503 275.156 252.284L209.231 136.516L73.0325 214.084L139.842 329.381L141.935 332.724C143.552 335.984 145.566 339.031 147.931 341.795C148.102 341.998 148.929 342.428 150.795 342.607Z" fill="url(#paint0_linear_439_1019)"/>
<path d="M151.079 224.145C156.524 216.841 163.677 210.985 171.911 207.089C180.146 203.193 189.21 201.377 198.31 201.799C205.644 202.122 212.837 203.927 219.455 207.106C222.762 208.71 225.902 210.639 228.826 212.867C237.625 219.592 244.215 228.792 247.75 239.287C251.284 249.783 251.603 261.095 248.664 271.773C246.242 280.566 241.681 288.624 235.39 295.228C229.099 301.832 221.272 306.778 212.607 309.624C209.174 310.745 205.642 311.536 202.059 311.985C198.485 312.43 194.875 312.522 191.283 312.261C187.698 312.001 184.147 311.395 180.679 310.452C166.688 306.615 154.766 297.433 147.485 284.885C143.886 278.674 141.525 271.824 140.531 264.714C138.553 250.329 142.345 235.745 151.079 224.145ZM149.302 222.79C144.373 229.094 140.827 236.366 138.896 244.132C136.965 251.898 136.692 259.983 138.095 267.862C139.498 275.74 142.545 283.235 147.038 289.857C151.531 296.479 157.369 302.08 164.172 306.294C170.974 310.509 178.589 313.243 186.518 314.319C194.448 315.394 202.516 314.786 210.195 312.535C217.874 310.284 224.993 306.44 231.087 301.254C237.182 296.067 242.115 289.655 245.565 282.435C248.759 275.744 250.609 268.491 251.009 261.087C251.206 257.405 251.048 253.713 250.539 250.06C248.469 235.313 240.671 221.976 228.834 212.94C222.971 208.475 216.309 205.171 209.207 203.203C194.762 199.177 179.313 201.002 166.204 208.282C162.944 210.108 159.875 212.255 157.043 214.692C154.203 217.118 151.608 219.817 149.294 222.749L149.302 222.79Z" fill="#D7FFFF"/>
<path d="M223.171 254.207C222.676 250.501 221.422 246.938 219.487 243.74C217.565 240.591 215.039 237.852 212.055 235.683C210.584 234.618 209.017 233.695 207.373 232.924C202.47 230.632 197.026 229.747 191.649 230.368C186.196 231.019 181.053 233.255 176.857 236.798C172.662 240.341 169.597 245.037 168.043 250.305C166.489 255.572 166.513 261.179 168.113 266.433C169.713 271.686 172.818 276.356 177.044 279.863C179.942 282.267 183.291 284.068 186.894 285.161C190.526 286.247 194.336 286.608 198.107 286.224C199.99 286.018 201.848 285.632 203.657 285.072C207.29 283.923 210.656 282.058 213.556 279.587C217.895 275.862 221.007 270.913 222.481 265.388C223.446 261.743 223.681 257.943 223.171 254.207ZM220.583 254.507C221.232 261.317 219.174 268.108 214.854 273.412C212.737 276.027 210.14 278.214 207.203 279.854C202.755 282.333 197.683 283.465 192.604 283.114C187.525 282.762 182.657 280.942 178.594 277.875C174.42 274.719 171.275 270.397 169.555 265.456C167.835 260.514 167.618 255.174 168.93 250.109C170.054 245.789 172.247 241.822 175.307 238.572C178.367 235.322 182.195 232.894 186.44 231.512C188.14 230.961 189.89 230.578 191.665 230.368C195.212 229.962 198.805 230.302 202.213 231.366C203.901 231.908 205.531 232.615 207.081 233.476C211.67 236.077 215.384 239.983 217.751 244.697C219.298 247.762 220.259 251.089 220.583 254.507Z" fill="#D7FFFF"/>
<path d="M167.883 292.114C195.413 256.706 202.919 266.256 244.786 293.818C206.651 265.469 189.612 260.681 223.869 219.171C187.949 263.578 183.105 245.549 143.396 217.126C170.423 237.435 199.527 256.681 167.883 292.114Z" fill="#57D9FD"/>
<path d="M179.551 248.016C179.551 248.016 191.178 254.791 201.612 245.241C201.612 245.241 192.76 254.385 204.412 265.761C204.412 265.761 193.596 261.282 185.677 269.712C185.677 269.712 192.46 256.276 179.551 248.016Z" fill="#D7FFFF"/>
<path d="M168.054 253.355C168.378 252.925 164.97 260.576 169.847 267.667C169.579 266.742 162.455 261.606 152.71 262.661C152.702 262.661 164.24 260.422 168.054 253.355Z" fill="#D7FFFF"/>
<path d="M221.013 247.772C221.013 247.772 225.808 254.312 221.102 261.493C221.256 260.544 227.958 254.369 238.206 253.89C238.206 253.89 225.905 254.166 221.013 247.772Z" fill="#D7FFFF"/>
<path d="M188.581 176.812L211.248 164.066L271.14 270.575L248.473 283.322L188.581 176.812Z" fill="url(#paint1_linear_439_1019)"/>
<path opacity="0.33" d="M78.8665 210.749L127.265 183.162L207.065 321.43L199.105 326.176C198.87 326.314 198.618 326.452 198.391 326.598C182.748 335.921 165.125 341.601 154.909 342.501L78.8665 210.749Z" fill="url(#paint2_linear_439_1019)"/>
<path d="M174.812 198.927C177.669 198.81 180.514 198.485 183.324 197.953L186.366 197.467L176.727 177.304L166.666 169.149L154.414 172.646L155.907 175.21C155.98 175.324 162.625 186.708 165.506 192.46C167.55 196.558 169.733 198.951 174.812 198.951V198.927Z" fill="#390176"/>
<path d="M182.967 195.682C172.63 197.304 170.512 197.304 167.551 191.438C164.589 185.572 157.887 174.05 157.887 174.05L166.139 171.689L174.869 178.764L182.967 195.682Z" fill="#175951"/>
<path d="M171.664 115.436L189.653 104.709L187.324 82.1041L183.51 71.5886L162.69 72.8544L118.024 92.5385L89.6983 109.829L85.6414 115.395L94.0636 132.142L99.4593 141.392L171.664 115.436Z" fill="#390176"/>
<path d="M187.081 103.395L184.939 82.6641L181.847 74.1445L163.266 75.2805L119.143 94.7212L91.3698 111.679L88.4894 115.631L96.1976 130.966L100.538 138.398L170.626 113.205L187.081 103.395Z" fill="#1F4B7A"/>
<path opacity="0.33" d="M91.37 111.671L119.144 94.7212L163.25 75.2805L181.831 74.1445L184.922 82.6641L187.064 103.395L173.733 111.363C167.672 111.614 160.841 111.72 160.841 111.72L160.256 102.437C169.092 91.3783 158.341 84.0109 135.055 94.4778C111.768 104.945 95.6946 113.48 95.0942 118.341C94.6398 122.162 90.445 117.529 88.668 115.355L91.37 111.671Z" fill="#231F1F"/>
<path d="M67.2067 217.394C83.6291 218.692 115.484 207.584 148.345 189.093C154.357 185.71 160.256 182.164 165.895 178.545C168.224 182.529 172.695 190.205 174.399 193.215C176.102 196.225 178.602 197.937 181.498 198.164C183.487 198.278 185.465 197.795 187.178 196.777C189.506 195.462 198.724 189.15 206.132 184.071C209.897 181.499 213.142 179.267 214.319 178.505C217.913 176.16 220.81 173.076 217.564 166.423C215.657 162.455 208.866 150.366 206.408 146.001C215.925 135.574 219.171 127.477 216.104 121.911L204.517 100.896C202.724 97.6502 199 95.7841 193.45 95.3459C177.027 94.0477 145.173 105.156 112.312 123.647C73.5436 145.441 36.6257 176.387 44.5854 190.813L56.1476 211.844C57.9407 215.09 61.665 216.956 67.2149 217.394H67.2067Z" fill="#390176"/>
<path d="M113.464 125.797C156.467 101.634 196.282 91.0213 202.391 102.105L213.986 123.12C216.639 127.931 212.501 136.037 203.438 145.644C203.438 145.644 213.118 162.731 215.406 167.486C217.694 172.241 216.445 174.188 212.972 176.411C209.499 178.634 189.385 192.639 185.961 194.602C182.537 196.566 178.821 196.087 176.484 191.965C174.147 187.844 166.682 175.072 166.682 175.072C160.565 179.081 154.017 183.056 147.136 186.927C104.133 211.098 64.3184 221.711 58.2087 210.627L46.614 189.612C40.5611 178.553 70.4606 149.968 113.464 125.797Z" fill="#3F8680"/>
<path opacity="0.33" d="M118.397 160.857C118.397 160.857 137.87 154.853 139.404 154.317C140.937 153.782 168.524 143.631 169.847 142.731C171.396 141.684 196.209 135.217 196.209 135.217L201.515 158.139L211.584 172.938C209.769 175.863 207.806 178.693 205.702 181.417C198.399 186.407 188.354 193.312 186.018 194.627C182.585 196.566 178.877 196.112 176.541 191.99C174.204 187.868 166.739 175.097 166.739 175.097C166.739 175.097 170.934 164.33 164.305 160.654C157.506 156.881 127.484 174.975 123.273 182.886C120.458 189.539 114.932 198.716 104.676 204.169C93.5605 210.075 85.471 213.792 67.9857 209.913C60.0341 208.153 57.4377 203.025 49.973 195.633L46.7275 189.823C47.5794 174.245 118.397 160.857 118.397 160.857Z" fill="#231F1F"/>
<path d="M55.6365 196.379C72.0588 197.678 103.914 186.57 136.775 168.078C175.543 146.285 212.461 115.338 204.501 100.912C202.716 97.6665 198.992 95.8003 193.434 95.3621C177.019 94.0639 145.156 105.172 112.295 123.663C73.5194 145.457 36.6095 176.403 44.5611 190.829C46.3624 194.075 50.0866 195.941 55.6365 196.379Z" fill="#390176"/>
<path d="M46.7247 189.667C40.516 178.635 70.3318 150.079 113.32 125.886C156.308 101.693 196.19 91.0242 202.399 102.056C208.608 113.089 178.792 141.644 135.804 165.837C92.8154 190.03 52.9334 200.699 46.7247 189.667Z" fill="#5CC5C0"/>
<path opacity="0.33" d="M102.859 182.067C100.052 178.14 97.3985 174.342 97.3985 174.342L118.843 155.112C118.843 155.112 124.117 162.877 129.188 162.626C134.26 162.374 150.009 154.885 147.136 151.356C144.264 147.826 130.998 149.36 130.04 146.414L134.097 130.998C134.097 130.998 163.713 106.04 172.338 106.494C180.963 106.949 172.954 115.233 177.506 116.134C182.058 117.034 194.894 106.916 194.894 106.916L199.852 114.608C191.267 128.402 166.918 148.346 135.623 165.928C125.017 171.926 114.078 177.314 102.859 182.067Z" fill="#231F1F"/>
<path d="M71.1826 171.283C79.0692 171.908 101.204 162.885 126.186 148.824C140.053 141.027 152.654 132.864 161.627 125.838C175.275 115.2 175.689 111.233 174.301 108.677C173.79 107.744 172.678 106.6 170.131 106.397C162.244 105.772 140.11 114.803 115.127 128.856C101.261 136.653 88.6517 144.816 79.6453 151.842C65.9979 162.48 65.5759 166.447 66.9634 169.011C67.507 169.936 68.6592 171.088 71.1826 171.283Z" fill="#390176"/>
<path d="M69.1317 167.826C66.7069 163.514 87.8179 147.042 116.284 131.035C144.751 115.027 169.794 105.546 172.218 109.859C174.643 114.171 153.532 130.643 125.066 146.65C96.599 162.658 71.5566 172.139 69.1317 167.826Z" fill="#FED995"/>
<path opacity="0.33" d="M79.5318 155.088C81.7793 153.271 84.3433 151.339 87.175 149.319C93.9582 148.167 105.95 145.141 121.253 137.205C143.031 125.919 147.907 118.251 131.801 122.754C153.343 111.939 170.236 106.348 172.184 109.87C174.569 114.194 153.433 130.682 124.961 146.682C109.447 155.405 94.9399 162.171 84.611 165.831L80.0024 167.348C78.3796 167.827 76.9191 168.159 75.6209 168.443L79.5318 155.088Z" fill="#231F1F"/>
<path d="M121.326 140.021C138.755 130.219 154.877 122.884 165.319 119.655C163.267 121.464 160.808 123.452 158.017 125.554C157.352 126.057 156.662 126.56 155.964 127.079L155.761 127.217C155.072 127.72 154.366 128.231 153.644 128.743L153.538 128.816C151.996 129.897 150.374 131.012 148.67 132.158L148.426 132.321C147.704 132.808 146.974 133.294 146.227 133.781L145.643 134.171L143.631 135.469L142.998 135.883L140.726 137.319L140.337 137.562C139.428 138.138 138.503 138.706 137.562 139.282L137.124 139.558L134.803 140.962L133.894 141.506L131.931 142.666L130.925 143.258L128.888 144.443L127.979 144.97L125.01 146.658L122.032 148.281L121.091 148.792C120.409 149.173 119.72 149.546 119.038 149.911L117.991 150.471C117.326 150.828 116.669 151.185 116.003 151.526L115.046 152.037L112.661 153.271L112.182 153.522L109.285 154.991L108.855 155.202L106.47 156.386L105.772 156.719L103.63 157.749L102.989 158.058L100.612 159.169L100.336 159.291C98.502 160.102 96.7088 160.914 94.9805 161.685L94.8507 161.741L92.4653 162.756L92.23 162.853C91.4186 163.178 90.6559 163.502 89.8851 163.802H89.8445C86.599 165.101 83.6374 166.163 81.0329 166.967C89.2279 159.786 103.898 149.814 121.326 140.021Z" fill="#390176"/>
<path d="M127.062 142.779C127.062 142.909 127.127 143.039 127.176 143.177C127.76 144.97 129.383 147.007 133.74 147.348C134.186 147.348 134.649 147.404 135.136 147.396C137.732 147.396 141.018 147.526 144.832 147.672C146.909 147.745 149.132 147.834 151.445 147.907C152.077 147.907 152.662 147.956 153.246 148.005C158.471 148.419 161.514 149.879 163.112 152.759C163.924 154.187 166.155 158.528 168.792 163.559C172.849 171.438 177.944 181.255 179.9 184.598C181.75 187.787 183.713 189.353 186.091 189.539C188.151 189.702 190.269 188.728 192.07 187.795C195.154 186.172 200.647 182.342 205.053 179.275C207.008 177.92 208.696 176.744 209.767 176.03C213.621 173.515 213.824 172.168 213.872 167.421C213.872 165.888 213.872 164.176 213.872 162.366C213.872 159.859 213.824 157.271 213.872 154.999V154.293C213.913 153.425 213.937 152.573 213.913 151.729C213.913 151.575 213.913 151.404 213.913 151.25C213.899 150.75 213.847 150.25 213.759 149.757L213.661 149.246C213.433 148.093 212.993 146.993 212.363 146.001L211.982 145.449C211.702 145.06 211.398 144.689 211.073 144.337C210.943 144.199 210.813 144.053 210.675 143.915L210.497 143.745C210.318 143.567 210.124 143.388 209.921 143.201L204.128 138.049C201.84 136.004 199.178 133.635 196.428 131.201L194.083 129.148C190.448 125.903 186.78 122.657 183.819 120.045C182.683 119.038 180.719 118.422 177.814 118.203C169.53 117.545 155.096 120.191 151.761 122.032C151.655 122.097 151.526 122.162 151.396 122.251C150.901 122.535 150.227 122.965 149.424 123.493L148.832 123.874C148.694 123.98 148.556 124.069 148.41 124.166L147.599 124.694L146.787 125.262C143.542 127.517 139.282 130.576 135.582 133.473L135.111 133.854L134.633 134.236C134.146 134.609 133.691 134.974 133.27 135.339C131.321 136.827 129.527 138.507 127.914 140.353L127.736 140.581C127.639 140.71 127.549 140.84 127.468 140.962C127.343 141.148 127.232 141.344 127.135 141.546C126.949 141.932 126.923 142.375 127.062 142.779Z" fill="#390176"/>
<path d="M183.056 120.961C191.454 128.41 205.045 140.507 209.134 144.134C213.223 147.761 212.81 151.047 212.664 154.974C212.518 158.902 212.664 163.754 212.664 167.421C212.599 171.827 212.566 172.768 209.11 175.016C205.653 177.263 195.9 184.379 191.503 186.708C187.105 189.036 184.111 189.434 180.955 183.981C177.798 178.529 166.269 155.859 164.216 152.159C162.163 148.459 158.066 146.877 151.526 146.674C144.986 146.471 139.233 146.179 135.176 146.171C131.12 146.163 128.872 144.889 128.28 142.479C127.687 140.069 148.645 125.156 152.378 123.111C156.11 121.067 178.667 117.083 183.056 120.961Z" fill="#95ABA8"/>
<path opacity="0.33" d="M142.966 129.465C145.562 129.245 199.048 142.065 199.714 142.512C200.379 142.958 210.359 152.305 212.647 154.455C212.647 154.626 212.647 154.796 212.647 154.974C212.647 155.299 212.647 155.64 212.647 155.981C209.929 161.255 204.972 164.338 200.209 171.316C195.446 178.294 197.896 180.922 203.763 178.675C199.56 181.596 194.375 185.166 191.486 186.708C187.089 189.036 184.095 189.434 180.938 183.981C177.782 178.529 166.252 155.859 164.2 152.159C162.804 149.652 160.467 148.102 157.067 147.291H156.97C155.174 146.911 153.345 146.702 151.51 146.666H151.339C144.304 146.171 133.74 145.717 128.564 143.023L128.434 142.942C128.369 142.788 128.312 142.631 128.263 142.471C127.866 140.97 135.972 134.552 142.966 129.465Z" fill="#231F1F"/>
<path d="M127.062 142.779C127.062 142.909 127.127 143.039 127.176 143.177L128.539 143.031C130.973 142.779 134.722 142.366 138.99 141.854C144.754 141.14 150.571 140.953 156.37 141.295C160.946 141.652 163.047 142.463 163.997 143.072C167.883 145.587 174.958 154.001 179.632 159.575L181.028 161.247C184.744 165.652 187.583 167.632 190.513 167.867C192.243 167.965 193.961 167.522 195.43 166.602C207.6 159.583 213.856 154.577 213.945 151.713C213.945 151.559 213.945 151.388 213.945 151.234C213.921 150.734 213.87 150.236 213.791 149.741L213.694 149.23C213.448 148.082 213.009 146.985 212.396 145.984L212.014 145.433C211.734 145.044 211.43 144.673 211.105 144.321C210.976 144.183 210.846 144.037 210.708 143.899L210.529 143.729C210.351 143.55 210.156 143.372 209.953 143.185L204.16 138.033C201.872 135.988 199.211 133.619 196.46 131.185L194.083 129.148C190.448 125.903 186.78 122.657 183.819 120.045C182.683 119.038 180.719 118.422 177.814 118.203C169.53 117.545 155.096 120.191 151.761 122.032C151.655 122.097 151.526 122.162 151.396 122.251C150.901 122.535 150.227 122.965 149.424 123.493L148.832 123.874C148.694 123.98 148.556 124.069 148.41 124.166L147.599 124.694L146.787 125.262C143.542 127.517 139.282 130.576 135.582 133.473L135.111 133.854L134.633 134.236L133.27 135.339C131.342 136.851 129.55 138.529 127.914 140.353L127.736 140.581C127.58 140.779 127.442 140.991 127.322 141.213L127.135 141.546C126.949 141.932 126.923 142.375 127.062 142.779Z" fill="#390176"/>
<path d="M138.844 140.637C134.698 141.14 130.998 141.546 128.418 141.814C130.438 138.09 148.881 125.034 152.378 123.152C156.126 121.083 178.675 117.123 183.056 121.002C191.454 128.45 205.045 140.548 209.134 144.175C210.267 145.075 211.181 146.222 211.805 147.528C212.429 148.834 212.748 150.265 212.737 151.713C212.631 155.031 199.397 162.95 194.829 165.579C190.261 168.208 186.715 166.09 181.953 160.492C177.19 154.893 169.108 144.954 164.646 142.082C160.183 139.209 146.722 139.68 138.844 140.637Z" fill="#C9E3DA"/>
<path d="M190.756 160.167C192.239 160.271 193.709 159.826 194.886 158.918C196.071 158.033 197.32 157.149 198.578 156.248C200.777 154.666 203.057 153.003 205.182 151.38C205.581 151.071 205.903 150.675 206.125 150.222C206.347 149.769 206.463 149.272 206.464 148.767C206.537 144.865 200.639 139.274 194.294 133.806C193.085 132.767 191.981 131.801 190.959 130.909C187.478 127.866 184.963 125.675 182.22 124.069C181.231 123.404 180.105 122.968 178.926 122.795C177.368 122.673 176.289 123.436 174.666 124.58L173.709 125.254C170.601 127.379 166.406 130.43 164.07 132.459C163.761 132.694 163.514 132.999 163.347 133.349C163.181 133.699 163.1 134.083 163.112 134.471C163.185 136.029 164.792 137.157 166.828 138.585C167.965 139.353 169.049 140.196 170.074 141.108C177.644 148.11 182.496 153.092 184.484 155.9C186.829 159.234 189.214 160.046 190.756 160.167Z" fill="#390176"/>
<path d="M204.428 150.382C208.079 147.485 198.748 139.217 193.474 134.706C188.2 130.195 185.003 127.103 181.571 125.099C178.139 123.095 177.644 123.972 174.35 126.235C171.056 128.499 166.999 131.485 164.824 133.359C162.65 135.234 167.526 137.067 170.877 140.175C174.228 143.282 182.504 150.982 185.482 155.161C188.46 159.34 191.714 159.77 194.196 157.928C197.442 155.502 201.126 153.019 204.428 150.382Z" fill="#46462A"/>
<path d="M164.816 133.359C166.999 131.485 171.056 128.491 174.35 126.235C177.644 123.98 178.139 123.095 181.571 125.099C185.003 127.103 188.2 130.195 193.474 134.706C198.748 139.217 208.079 147.485 204.428 150.382C204.12 150.634 203.787 150.877 203.471 151.12C203.268 148.516 185.377 132.329 181.985 129.862C178.594 127.396 177.458 127.769 173.815 130.479C170.171 133.189 166.261 136.653 166.252 136.662C164.581 135.428 163.615 134.398 164.816 133.359Z" fill="#390176"/>
<path d="M182.786 146.191C179.004 142.071 177.32 137.464 179.023 135.9C180.726 134.337 185.173 136.409 188.955 140.529C192.737 144.649 194.422 149.256 192.718 150.82C191.015 152.383 186.568 150.311 182.786 146.191Z" fill="#FF8517"/>
<path d="M72.2131 171.007L67.4584 158.423L55.7502 138.268L53.2998 135.939L41.6727 147.283L37.0072 155.607L41.1453 162.78L41.9729 172.695L72.2131 171.007Z" fill="#390176"/>
<path d="M53.4701 139.177L65.2595 159.486L68.7566 168.744L44.196 170.115L43.5226 162.025L39.8064 155.583L43.6118 148.8L53.4701 139.177Z" fill="#1F4B7A"/>
<path d="M56.0665 201.142C60.4434 201.491 64.8481 201.174 69.1297 200.201C81.8279 197.312 109.366 187.016 117.269 181.588C124.807 176.427 125.57 175.21 126.486 170.691V170.537C127.144 167.291 126.146 165.725 124.969 164.297C124.581 163.886 124.275 163.404 124.068 162.877L123.987 162.65L123.858 162.439C123.776 162.309 116.133 149.717 113.65 145.765C111.565 142.439 108.587 140.467 105.261 140.207C103.019 140.063 100.79 140.631 98.8913 141.83C94.4692 144.483 80.5703 151.981 69.4949 154.747L67.58 155.226C60.8131 156.922 55.4661 158.269 51.3037 157.936C49.6557 157.844 48.0535 157.36 46.6301 156.524C46.127 156.216 45.8187 155.924 45.8187 155.656C45.5753 154.123 48.5774 150.617 50.7681 148.062C51.9528 146.682 53.2023 145.262 54.2084 143.85C56.2774 141.043 56.0827 139.055 55.5472 137.879C55.2397 137.222 54.7576 136.663 54.1537 136.263C53.5498 135.862 52.8474 135.635 52.1232 135.607C49.9487 135.436 47.2549 136.572 44.5367 138.852C41.8186 141.132 20.2358 162.464 25.9398 170.74C29.2503 175.543 36.3986 188.533 39.0924 193.458L39.8551 194.846C41.632 197.913 48.2853 200.526 56.0665 201.142Z" fill="#390176"/>
<path d="M121.87 163.721C121.87 163.721 114.186 151.055 111.687 147.08C109.188 143.104 104.887 141.148 100.214 143.948C95.5404 146.747 81.3817 154.333 70.1928 157.133C59.0038 159.932 51.3038 162.163 45.4943 158.634C39.6848 155.104 47.9284 148.418 52.3667 142.406C55.6934 137.895 51.677 136.207 46.1758 140.735C40.6746 145.262 24.2685 163.827 28.0414 169.328C31.8143 174.829 40.4394 190.635 42.0784 193.596C43.7173 196.558 55.5717 200.809 68.6836 197.824C81.7956 194.838 108.571 184.663 115.987 179.576C123.403 174.488 123.46 173.782 124.223 170.066C124.985 166.35 122.795 166.391 121.87 163.721Z" fill="#286F9B"/>
<path opacity="0.33" d="M28.9259 162.074C39.1088 162.593 54.6143 163.51 54.6143 163.51L88.4895 153.83L93.5039 157.887C90.1042 163.486 80.3838 167.689 64.0264 174.115C47.6689 180.541 54.517 194.01 65.1298 194.229C75.7427 194.448 78.826 194.659 84.3434 193.118C78.4203 195.146 72.8136 196.842 68.6188 197.799C55.5068 200.785 43.6606 196.542 42.0135 193.572C40.3664 190.602 31.7658 174.797 27.9766 169.304C26.8975 167.746 27.4573 165.125 28.9259 162.074Z" fill="#231F1F"/>
<path d="M35.0516 175.34C39.8145 175.713 46.411 174.87 57.0158 172.517C72.2536 169.141 91.3535 159.356 96.2137 156.362C97.3415 155.664 99.6945 154.22 100.725 154.301C100.847 154.301 101.236 154.301 101.975 155.299C103.321 157.225 104.517 159.251 105.553 161.36C107.484 164.938 110.421 170.35 115.768 179.47L117.107 181.75L119.257 180.225C124.937 176.225 125.675 174.837 126.559 170.659V170.537C127.217 167.291 126.219 165.725 125.042 164.297C124.654 163.886 124.348 163.404 124.141 162.877L124.06 162.65L123.931 162.439C123.849 162.309 116.206 149.717 113.723 145.765C111.638 142.439 108.66 140.467 105.334 140.207C103.092 140.063 100.863 140.631 98.9643 141.83C94.8424 144.264 80.5946 151.997 69.5679 154.747L67.653 155.226C60.8861 156.922 55.5391 158.269 51.3767 157.936C49.7287 157.844 48.1265 157.36 46.7031 156.524C46.2 156.216 45.8917 155.924 45.8917 155.656C45.6483 154.123 48.6504 150.617 50.8411 148.062C52.0258 146.682 53.2753 145.262 54.2814 143.85C56.3505 141.043 56.1557 139.055 55.6202 137.879C55.3127 137.222 54.8306 136.663 54.2267 136.263C53.6228 135.862 52.9204 135.635 52.1962 135.607C50.0217 135.436 47.3279 136.572 44.6097 138.852C41.8916 141.132 20.3088 162.464 26.0128 170.74C26.3293 171.194 26.6782 171.73 27.0514 172.314L27.3029 172.711L27.6762 172.979C29.8692 174.449 32.4292 175.278 35.0679 175.373L35.0516 175.34Z" fill="#390176"/>
<path d="M46.1109 140.718C51.612 136.191 55.6284 137.879 52.3017 142.39C47.8553 148.418 39.6117 155.096 45.4293 158.618C51.2469 162.139 58.9064 159.916 70.1278 157.116C81.3492 154.317 95.516 146.731 100.149 143.932C104.782 141.132 109.115 143.12 111.614 147.063C114.113 151.007 121.87 163.721 121.87 163.721C122.827 166.391 124.945 166.326 124.19 170.05C123.501 173.409 123.379 174.318 117.878 178.221C107.581 160.703 106.242 156.808 103.906 153.79C101.569 150.771 99.3944 151.542 94.9804 154.269C90.5665 156.995 71.5234 166.796 56.5209 170.123C41.5184 173.45 33.3559 174.042 29.1043 170.934C28.7067 170.318 28.3416 169.758 28.017 169.312C24.1873 163.81 40.6097 145.246 46.1109 140.718Z" fill="#2892CE"/>
<path opacity="0.6" d="M48.1637 147.412C44.3989 151.843 41.202 156.062 45.4293 158.634C51.2388 162.163 58.9064 159.932 70.1278 157.133C75.3387 155.722 80.42 153.871 85.3169 151.599C69.4381 159.421 50.9792 164.946 44.5692 160.086C39.2628 156.054 45.7701 149.538 48.1637 147.412Z" fill="white"/>
<path d="M82.404 124.742C84.4811 127.988 88.2703 134.633 89.8038 137.319L91.0371 139.566L93.2359 138.138C95.7918 136.459 98.299 134.893 100.676 133.375L102.672 132.134L101.52 130.073C97.4633 122.819 94.664 117.627 93.9175 115.841C93.3982 114.633 98.0961 111.785 105.885 107.152C107.857 105.967 110.072 104.636 112.571 103.095C129.61 92.7495 139.963 87.1672 161.352 80.8546C166.666 79.2806 170.829 78.599 173.725 78.8262C174.983 78.9235 176.614 79.2643 177.133 80.2542C177.741 81.4145 177.222 83.7756 175.81 86.299C172.565 92.0274 172.37 93.6988 174.439 96.847L174.756 97.3338C174.915 97.5643 175.059 97.8056 175.186 98.056C176.727 100.66 178.934 105.164 178.959 105.204V105.285L179.007 105.367C185.263 115.996 185.734 116.547 186.22 117.123C186.277 117.205 186.334 117.27 186.569 117.635C187.274 118.61 188.194 119.41 189.258 119.973C190.321 120.536 191.5 120.846 192.703 120.88C194.823 121.021 196.944 120.625 198.87 119.728C199.203 119.582 199.519 119.444 199.835 119.29C200.347 119.055 200.833 118.819 201.304 118.568L201.483 118.478L201.953 118.211L202.724 117.781L203.535 117.31C209.158 113.829 212.209 109.399 212.615 104.158C212.72 102.803 212.842 101.723 212.939 100.823C213.442 96.0032 213.215 95.1431 210.01 89.7636C208.249 86.7858 206.546 83.8568 204.915 81.0331C203.081 77.8688 201.345 74.8747 199.657 72.1079C199.446 71.7672 199.211 71.4264 198.943 71.0531C198.793 70.8357 198.63 70.627 198.456 70.4284C197.193 68.9339 195.635 67.7158 193.88 66.8502C191.43 65.6357 188.763 64.9239 186.034 64.7568C183.322 64.5606 180.596 64.7051 177.92 65.1868C168.995 66.7609 144.418 74.9721 127.858 83.7594C111.784 92.3033 87.1181 106.786 82.9801 109.724C79.8238 112.012 77.13 116.458 82.404 124.742Z" fill="#390176"/>
<path d="M84.4487 123.42C86.3311 126.373 89.6415 132.11 91.9053 136.102C94.3394 134.479 96.8791 132.856 99.4025 131.298C96.7574 126.592 92.7167 119.29 91.6781 116.815C90.0553 113.075 94.6883 111.135 111.314 101.034C127.939 90.932 138.779 85.0089 160.67 78.5341C182.561 72.0593 181.271 81.5849 177.92 87.5404C174.569 93.496 175.267 93.642 176.8 96.0437C176.963 96.2953 177.133 96.5711 177.303 96.8551C178.877 99.5327 181.133 104.158 181.133 104.158C189.401 118.203 187.397 114.373 188.655 116.328C189.912 118.284 193.718 119.412 197.921 117.529C199.421 116.876 200.874 116.119 202.27 115.265C205.969 112.969 209.791 109.399 210.205 104.003C210.805 96.3277 211.657 97.3419 207.933 91.0618C204.209 84.7817 200.777 78.6801 197.588 73.3899C194.399 68.0997 187.08 66.0875 178.374 67.6129C169.668 69.1383 145.311 77.2927 129.026 85.9339C112.742 94.5751 88.2135 109.034 84.4 111.728C80.5865 114.422 81.3898 118.608 84.4487 123.42Z" fill="#2892CE"/>
<path opacity="0.6" d="M178.374 67.6453C187.08 66.128 194.415 68.124 197.588 73.4224C198.269 74.5502 198.959 75.7186 199.665 76.9113L192.257 79.6213C192.671 72.2134 193.109 66.3552 174.885 68.3999C176.232 68.0673 177.401 67.8157 178.374 67.6453Z" fill="white"/>
<path opacity="0.33" d="M182.724 80.8384C180.517 87.9137 174.017 91.8976 181.766 94.1857C185.612 95.3216 189.215 112.223 195.99 111.785C202.059 111.387 200.988 108.645 204.631 113.635C203.876 114.221 203.088 114.763 202.27 115.257C200.874 116.111 199.421 116.868 197.921 117.521C193.718 119.403 189.896 118.332 188.655 116.32C187.413 114.308 189.401 118.162 181.133 104.149C181.133 104.149 178.878 99.5489 177.303 96.847C177.125 96.5387 176.963 96.2628 176.8 96.0356C175.267 93.6015 174.577 93.496 177.92 87.5323C181.263 81.5687 182.561 72.0674 160.67 78.526C157.287 79.524 154.179 80.5139 151.266 81.5037C173.441 72.6597 184.939 73.7631 182.724 80.8384Z" fill="#231F1F"/>
<path d="M193.085 69.1708C194.927 68.0511 197.247 68.9679 198.464 70.4284L198.659 70.68C198.764 70.8098 198.854 70.9396 198.951 71.0532C199.219 71.4264 199.454 71.7672 199.665 72.108C201.353 74.9154 203.089 77.9094 204.923 81.0738C206.546 83.8974 208.258 86.8265 210.018 89.8042C213.264 95.2162 213.45 96.0438 212.947 100.863C212.85 101.756 212.728 102.843 212.623 104.198C212.217 109.44 209.166 113.87 203.544 117.351L202.732 117.821L201.961 118.251L201.491 118.519L201.312 118.608L199.884 119.42L199.844 119.355L198.7 117.343C195.681 112.028 190.294 102.592 188.03 99.0459C187.373 98.0154 186.78 97.1878 186.261 96.4576C183.867 93.1228 182.707 90.7779 186.732 86.8508C189.977 83.6053 194.708 77.1142 194.326 72.4407C194.315 71.8 194.195 71.1661 193.969 70.5664C193.765 70.0495 193.465 69.5759 193.085 69.1708Z" fill="#390176"/>
<path d="M188.46 88.6439C192.006 85.1469 197.231 78.0067 196.768 72.2783C197.064 72.6523 197.336 73.0453 197.58 73.4548C200.769 78.745 204.193 84.8142 207.925 91.1267C211.657 97.4393 210.797 96.3926 210.197 104.068C209.783 109.464 205.961 112.994 202.262 115.33C201.775 115.631 201.296 115.898 200.825 116.142C197.669 110.584 192.363 101.301 190.083 97.7314C186.78 92.4899 184.906 92.1166 188.46 88.6439Z" fill="#286F9B"/>
<path opacity="0.33" d="M193.555 89.2362C190.245 95.6461 198.424 109.829 203.503 108.815C208.282 107.866 208.371 106.689 210.343 102.47C210.294 102.949 210.254 103.468 210.205 104.036C209.791 109.432 205.969 112.961 202.27 115.298C201.783 115.598 201.304 115.866 200.833 116.109C197.677 110.551 192.371 101.269 190.091 97.6989C186.748 92.4736 184.906 92.1004 188.468 88.5952C192.03 85.09 197.239 77.958 196.776 72.2296C199.081 79.2886 196.874 82.8263 193.555 89.2362Z" fill="#231F1F"/>
<path opacity="0.33" d="M89.4143 115.931C92.5057 119.022 89.7794 121.115 92.6193 125.327C95.4591 129.538 97.236 127.314 99.4268 131.298C96.9034 132.872 94.3962 134.479 91.9296 136.102C89.6658 132.11 86.3554 126.365 84.473 123.42C82.3309 120.085 81.3005 117.042 82.1118 114.608C84.1403 113.935 86.2986 112.839 89.4143 115.931Z" fill="#231F1F"/>
<path d="M297.007 344.4L301.064 341.065L301.372 340.814C305.8 337.027 309.479 332.445 312.22 327.304L312.902 326.079L312.204 324.87C312.139 324.756 305.761 313.705 302.678 308.269C299.928 303.401 297.599 302.654 294.84 302.151C294.315 302.061 293.795 301.942 293.282 301.794C291.238 301.145 290.686 300.983 285.453 291.782L284.39 289.867C282.491 286.556 281.241 284.374 281.079 283.319C281.079 283.132 281.014 282.913 282.467 281.696C290.962 274.394 299.084 259.326 293.015 251.489L292.893 251.326L292.739 251.18C290.694 249.314 287.708 248.178 284.106 247.935C281.985 247.751 279.849 247.885 277.769 248.332C277.299 248.448 276.836 248.589 276.381 248.754L273.541 249.777L275.164 252.365C275.278 252.551 278.061 257.038 280.609 260.479C282.669 263.245 280.373 266.475 275.034 272.649L273.412 274.532L272.227 275.927C267.286 281.68 267.213 282.93 271.416 289.323L271.635 289.648C274.775 294.378 279.586 303.263 281.509 306.865L281.955 307.677C278.949 310.805 275.763 313.755 272.414 316.513L270.791 317.892L277.655 328.813L295.343 345.771L297.007 344.4Z" fill="#390176"/>
<path d="M273.988 318.363C277.88 315.176 281.546 311.722 284.958 308.026C284.958 308.026 284.479 307.109 283.692 305.64C281.477 301.494 276.795 292.885 273.696 288.22C269.501 281.899 269.761 282.54 275.262 276.049C280.763 269.558 286.37 264.049 282.564 258.896C280.049 255.529 277.233 250.985 277.233 250.985C277.233 250.985 277.672 250.831 278.41 250.636C280.398 250.133 287.335 249.509 291.149 252.965C296.041 259.359 288.877 272.909 280.901 279.806C277.241 282.962 278.029 283.603 283.392 293.007C288.755 302.411 289.623 303.19 292.601 304.131C295.579 305.072 297.518 304.05 300.609 309.494C303.701 314.939 310.07 325.998 310.111 326.103C307.51 330.969 304.03 335.31 299.847 338.907C298.573 339.954 297.104 341.162 295.465 342.485L279.554 327.19L273.988 318.363Z" fill="#5CC5C0"/>
<path opacity="0.33" d="M273.988 318.363C277.88 315.176 281.546 311.722 284.958 308.026C284.958 308.026 284.479 307.109 283.692 305.64C281.477 301.494 276.795 292.885 273.696 288.22C272.653 286.818 271.758 285.311 271.026 283.725C275.74 283.887 277.818 283.214 280.528 287.976C281.266 289.307 282.215 290.946 283.392 293.007C288.747 302.411 289.623 303.19 292.593 304.131C295.563 305.072 297.518 304.05 300.609 309.494C303.701 314.939 310.07 325.998 310.111 326.103C307.51 330.969 304.03 335.31 299.847 338.907C298.573 339.954 297.104 341.163 295.465 342.485L279.554 327.191L273.988 318.363Z" fill="#231F1F"/>
<path d="M262.117 369.106C279.968 358.388 293.761 347.061 301.193 340.976L301.396 340.814C304.424 338.255 307.084 335.289 309.299 332.002L310.224 330.663L309.356 329.284C306.484 324.724 296.982 309.648 295.132 307.011C294.591 306.276 293.888 305.674 293.078 305.253C292.268 304.831 291.372 304.6 290.459 304.577C288.235 304.516 286.023 304.925 283.968 305.778L283.473 305.989L283.108 306.395C273.834 316.715 258.036 327.637 249.435 333.227C244.859 336.221 243.683 336.895 243.634 336.919L241.037 338.371L242.368 340.546C242.368 340.594 245.305 345.317 246.685 347.929C248.064 350.542 257.679 366.405 258.726 368.214L259.959 370.356L262.117 369.106Z" fill="#390176"/>
<path d="M284.958 308.026C284.958 308.026 291.092 305.429 293.201 308.431C295.067 311.093 305.088 326.996 307.352 330.598C305.259 333.701 302.744 336.498 299.879 338.907C292.447 345.009 278.783 356.271 260.892 366.997C260.892 366.997 250.693 349.276 249.265 346.566C247.837 343.856 244.875 339.045 244.875 339.045C244.875 339.045 246.011 338.404 250.807 335.272C260.178 329.162 275.667 318.355 284.958 308.026Z" fill="#2A97C0"/>
<path opacity="0.33" d="M249.257 346.566C248.908 345.893 245.338 339.864 244.867 339.045C250.88 336.116 266.685 331.321 278.467 322.322C275.379 327.437 271.721 332.184 267.562 336.473C260.689 343.548 269.59 353.739 279.059 349.852C286.306 346.825 293.275 343.171 299.887 338.931C292.455 345.033 278.791 356.295 260.9 367.021C260.868 366.989 250.677 349.276 249.257 346.566Z" fill="#231F1F"/>
<path d="M147.55 354.404C157.7 355.216 171.891 350.153 181.725 346.29C195.77 340.757 216.169 331.077 231.309 320.545L233.159 319.255L231.666 316.821C229.8 314.73 227.229 313.399 224.445 313.08C222.45 312.939 220.462 313.434 218.765 314.492L199.105 326.225C198.919 326.33 198.667 326.468 198.416 326.622C180.378 337.381 159.648 343.296 150.804 342.59C148.937 342.444 148.11 342.014 147.939 341.779C145.574 339.014 143.56 335.967 141.943 332.708L139.85 329.365L137.789 332.245L137.708 332.359C132.604 338.947 135.322 346.964 135.436 347.305L135.501 347.491L135.598 347.662C137.765 351.67 141.789 353.934 147.558 354.388L147.55 354.404Z" fill="#390176"/>
<path d="M139.631 333.868C139.631 333.82 139.696 333.779 139.72 333.738C141.423 337.221 143.561 340.473 146.081 343.418C150.365 348.481 177.725 341.795 199.633 328.74L200.298 328.351L219.966 316.618C223.787 314.338 227.349 315.912 229.897 318.549C215.487 328.578 195.819 338.128 180.809 344.035C165.798 349.942 143.558 357.398 137.692 346.534C137.724 346.501 135.266 339.475 139.631 333.868Z" fill="#5CC5C0"/>
<path d="M246.677 344.838C262.718 336.813 283.862 320.058 293.818 307.514L292.544 306.508C282.718 318.922 261.817 335.475 245.954 343.41L246.677 344.838Z" fill="#390176"/>
<defs>
<linearGradient id="paint0_linear_439_1019" x1="258.231" y1="217.427" x2="106.145" y2="305.843" gradientUnits="userSpaceOnUse">
<stop stop-color="#CAF2E4"/>
<stop offset="0.66" stop-color="#4695CE"/>
<stop offset="0.96" stop-color="#BBFFC1"/>
</linearGradient>
<linearGradient id="paint1_linear_439_1019" x1="252.48" y1="262.353" x2="203.854" y2="179.234" gradientUnits="userSpaceOnUse">
<stop stop-color="white" stop-opacity="0"/>
<stop offset="0.22" stop-color="white" stop-opacity="0.24"/>
<stop offset="0.6" stop-color="white" stop-opacity="0.64"/>
<stop offset="0.87" stop-color="white" stop-opacity="0.9"/>
<stop offset="1" stop-color="white"/>
</linearGradient>
<linearGradient id="paint2_linear_439_1019" x1="120.279" y1="280.106" x2="161.838" y2="254.466" gradientUnits="userSpaceOnUse">
<stop stop-color="#231F1F"/>
<stop offset="0.38" stop-color="#231F1F" stop-opacity="0.72"/>
<stop offset="1" stop-color="#231F1F" stop-opacity="0"/>
</linearGradient>
</defs>
</svg>
